PathFileType	4	(X/Y/Z)	RBDS012\RBDS012runT25.trc
DataRate	CameraRate	NumFrames	NumMarkers	Units	OrigDataRate	OrigDataStartFrame	OrigNumFrames
150.000000	150.000000	4	33	mm	150.000000	562	4500
Frame#	Time	L.ASIS			L.Heel.Bottom			L.Heel.Lateral			L.Heel.Top			L.Iliac.Crest			L.MT1			L.MT5			L.PSIS			L.Shank.Bottom.Lateral			L.Shank.Bottom.Medial			L.Shank.Top.Lateral			L.Shank.Top.Medial			L.Thigh.Bottom.Lateral			L.Thigh.Bottom.Medial			L.Thigh.Top.Lateral			L.Thigh.Top.Medial			R.ASIS			R.ASY			R.Heel.Bottom			R.Heel.Lateral			R.Heel.Top			R.Iliac.Crest			R.MT1			R.MT5			R.PSIS			R.Shank.Bottom.Lateral			R.Shank.Bottom.Medial			R.Shank.Top.Lateral			R.Shank.Top.Medial			R.Thigh.Bottom.Lateral			R.Thigh.Bottom.Medial			R.Thigh.Top.Lateral			R.Thigh.Top.Medial			
		X1	Y1	Z1	X2	Y2	Z2	X3	Y3	Z3	X4	Y4	Z4	X5	Y5	Z5	X6	Y6	Z6	X7	Y7	Z7	X8	Y8	Z8	X9	Y9	Z9	X10	Y10	Z10	X11	Y11	Z11	X12	Y12	Z12	X13	Y13	Z13	X14	Y14	Z14	X15	Y15	Z15	X16	Y16	Z16	X17	Y17	Z17	X18	Y18	Z18	X19	Y19	Z19	X20	Y20	Z20	X21	Y21	Z21	X22	Y22	Z22	X23	Y23	Z23	X24	Y24	Z24	X25	Y25	Z25	X26	Y26	Z26	X27	Y27	Z27	X28	Y28	Z28	X29	Y29	Z29	X30	Y30	Z30	X31	Y31	Z31	X32	Y32	Z32	X33	Y33	Z33	

563	3.746666666666667	2126.22815283969	996.0526509498814	879.5829287975376	2118.066580246763	28.79100909654412	972.6841506780033	2144.649544121378	42.43856128839479	923.8873839490228	2125.903137762798	78.60512972370935	971.069138573427	2080.832216242513	1069.289273594996	841.0915992317	2342.189041509331	54.54347219288109	1000.18212913376	2309.195175805673	49.1414244067895	886.4274341954359	1967.740119847012	1053.155773073664	966.674075901573	2194.217032191847	167.9732832195938	904.4474639136042	2149.676494603508	172.0646461664423	936.6740498715757	2186.775305349459	245.7160339544378	886.1764144641752	2144.604474343582	250.9455104620987	919.2838456395428	2201.764822697493	634.77908867244	848.6752067741872	2140.981634680796	604.8433264078226	875.4268810704489	2143.289462312882	726.14753647103	827.9792287938933	2087.286488697854	699.9114975591773	857.0219578087729	2142.560162925114	1000.545642116582	1143.139245412913	1557.433302464336	296.2240436452877	1080.366663046694	1467.3818483918	476.1460072945713	1076.822825565526	1483.455516642867	455.9564375859503	1115.27976263568	1517.976406055002	472.8639566614366	1080.503169320566	2112.286491006278	1074.268789041994	1168.912869642085	1522.391376875573	261.8092957788667	1025.596441405869	1501.643958015541	281.5308514220652	1142.430188323545	1980.107825230485	1055.757115158174	1072.272509379224	1622.104847555419	431.1189999267762	1134.016138699512	1618.212891478812	472.4228989332174	1103.834309496926	1702.061815606952	453.3629226062083	1151.764251972463	1693.201433054553	496.781349589186	1121.923333643103	1985.005783149409	588.3545697734307	1174.596790035403	1932.376530653401	599.8007233820136	1123.249529475149	1990.183346168189	696.836188308606	1188.759909465766	1939.149543169902	708.4692710324201	1143.189506846082	
564	3.753333333333333	2124.862142669112	990.2475530984	878.4379448934125	2101.187193891948	29.72283382074652	972.7178153448396	2128.222309776323	43.11981328463163	924.0530226752614	2110.425084140792	79.49380367438907	971.524750187475	2078.680823170492	1061.322060043366	840.3406571737312	2326.698957194519	49.47179523410641	1000.936154081071	2293.682788301517	45.95832753774269	886.669689028901	1965.573512476487	1045.698376704789	967.3201455216469	2184.277649295921	166.1847614436383	905.1265210106604	2139.274593476058	172.2051777635866	936.4656712894076	2180.268954990601	244.1651599048311	886.4586250979795	2137.795713299874	251.2162121420626	918.8593071769615	2202.829152688258	631.495080650153	847.9784279066378	2142.465122324741	601.2740223621678	875.2615988891204	2143.700678385631	722.522965821825	827.5691677319199	2088.014936490309	695.960006003926	856.9172662628183	2141.550292616474	994.2889067397191	1143.027230300227	1560.451679598294	307.0142116735816	1079.423815709275	1477.835088734546	490.8796502774963	1080.147410175361	1493.222348973444	469.0782354377633	1118.213385291224	1528.253528822713	485.3856859291708	1083.569568479832	2110.491394207133	1067.13675023333	1169.455869610774	1523.664439365063	275.1704744960349	1024.059882262043	1504.310393973152	293.262637718818	1141.602657022616	1977.760240041232	1047.663780652816	1072.646254652143	1630.244653287181	438.4138605305546	1135.379711128579	1627.998921002828	480.1975309912464	1105.715173151235	1711.186806285383	456.9403532643218	1153.012523849775	1704.026163759901	501.0797326747434	1123.811445543469	1992.339434508464	580.5779314079889	1175.119662780835	1940.066735303262	590.576565089778	1123.042677730605	1994.647011744949	689.1794575057459	1189.106606916244	1943.760318535632	699.4204026082767	1143.087401123443	
565	3.76	2123.401645054244	984.6195855455682	877.2506930655617	2084.337112964911	30.60735616413539	972.7401318248386	2111.663226078706	43.84895114170652	924.1660111951574	2094.663951360944	80.33621444305756	971.9160326947767	2076.33527837718	1053.504350433089	839.666284489986	2310.892908374128	45.69725085748024	1001.305961036418	2277.756414062722	43.8021006125761	886.5849381902312	1963.381715257884	1038.541580956412	968.1044588896558	2173.782838494019	164.8252966246452	905.7553176060586	2128.472386371311	172.8041046826687	936.3121494457072	2173.172288051097	242.9185617291433	886.707668276002	2130.55434910043	251.815558985297	918.4991859492312	2203.127192973144	627.9599573946676	847.1551300295279	2143.224632999766	597.6110271029816	875.2032065265522	2143.451758692407	718.7159049099628	827.0273208164818	2088.131409401481	691.9769570683487	856.8965384238622	2140.378349995784	987.7973787036383	1142.922990763454	1565.167798335793	317.0568966733063	1078.641803069555	1489.334182165009	504.1247472654908	1083.103807358928	1504.028972576765	480.9131312159033	1120.822376522862	1539.497798584501	496.6684483294133	1086.331657294961	2108.539473559098	1059.630880841884	1170.006796170052	1526.919445198803	287.5737598660902	1022.81853755654	1508.72143470336	304.1517371714112	1140.923076355503	1975.242249020704	1039.594064098866	1073.103463075205	1639.375490753093	445.0686426145937	1136.653639151445	1638.739146199277	487.2247095845491	1107.445001241741	1721.064684229438	460.0833961639675	1154.227036694761	1715.570872317547	504.8239389090795	1125.615114461014	1999.7828771614	573.3015950621183	1175.706935354749	1947.823184933326	581.8042151656003	1123.033767847445	1999.216468742262	681.9631359512391	1189.440659421848	1948.468588626326	690.7568978033312	1143.009336290184	
566	3.766666666666667	2121.856816438409	979.2711441503226	876.0339732412433	2067.657776106078	31.41296305395108	972.7535524222918	2095.136723284877	44.58198089607487	924.2351510642379	2078.775834442072	81.10397515670216	972.2378881902308	2073.821811527898	1046.081054381957	839.0791657684102	2294.926660770094	43.14594829355763	1001.362954096026	2261.596377959794	42.57197467793462	886.2613096801596	1961.234517081389	1031.886681408368	968.960844579525	2162.754482126286	163.8304832929932	906.3149350158021	2117.303001982932	173.7426182858754	936.2160029131293	2165.430210101813	241.9061046930169	886.9158266794	2122.826919514557	252.6238960018803	918.2080024820436	2202.619579954424	624.2285813462499	846.2546901673097	2143.168701767354	593.9052759430941	875.1996701496183	2142.547070588441	714.8064137070201	826.3815705459803	2087.599142428652	688.0429870393881	856.915127246719	2139.067905458896	981.2449630007293	1142.812786955244	1571.485361316711	326.2132307644782	1078.010957119692	1501.622213367364	515.7821448497208	1085.601057334643	1515.663502735308	491.3986632806432	1123.020154662089	1551.486283053853	506.6365686674042	1088.689184939007	2106.387835797324	1052.000706440579	1170.562813506782	1532.039486392626	298.8034193064893	1021.875400803016	1514.804947888199	314.0686805729657	1140.387487490804	1972.636779535645	1031.812749911854	1073.587255742589	1649.393206188148	451.0260201381853	1137.79004721872	1650.305993940712	493.4592327660671	1108.97657462605	1731.615645182351	462.7788938422571	1155.369653174965	1727.731964172305	508.0083334270469	1127.289755449796	2007.359302778745	566.6268971368607	1176.352858736403	1955.643443369147	573.5839852466532	1123.248469184574	2003.928100065166	675.289162279216	1189.745899318674	1953.291137759403	682.5844600572275	1142.961627064771	
